<svg width="281" height="281" viewBox="0 0 281 281" fill="none" xmlns="http://www.w3.org/2000/svg">
<ellipse cx="140.871" cy="43.6409" rx="14.8859" ry="14.8329" fill="white"/>
<rect x="127.635" y="54.2955" width="26.0693" height="3.44827" rx="1.72413" fill="white"/>
<path d="M102.064 198.553C111.57 187.774 117.335 173.638 117.335 158.161C117.335 144.958 113.14 132.731 106.006 122.732H175.332C168.198 132.731 164.004 144.958 164.004 158.161C164.004 173.638 169.768 187.774 179.275 198.553V203.932H102.064V198.553Z" fill="white"/>
<path fill-rule="evenodd" clip-rule="evenodd" d="M140.669 56.0197H133.262L102.284 100.397C99.575 105.014 97.7833 115.944 112.289 122.732H140.669H169.05C183.555 115.944 181.763 105.014 179.054 100.397L148.077 56.0197H140.669Z" fill="white"/>
<rect x="98.4049" y="122.732" width="84.5286" height="11.1809" rx="5.59044" fill="white"/>
<rect x="90.9965" y="203.932" width="99.3452" height="14.9063" fill="white"/>
<rect x="77.9652" y="218.838" width="125.408" height="15.6511" fill="white"/>
<rect x="69.6581" y="234.489" width="142.022" height="15.6511" fill="white"/>
</svg>
