<svg width="281" height="281" viewBox="0 0 281 281" fill="none" xmlns="http://www.w3.org/2000/svg">
<circle cx="140.871" cy="43.5616" r="14.8859" fill="#333333"/>
<rect x="127.635" y="54.2543" width="26.0693" height="3.46059" rx="1.73029" fill="#333333"/>
<path d="M102.064 199.027C111.57 188.21 117.335 174.023 117.335 158.491C117.335 145.241 113.14 132.97 106.006 122.935H175.332C168.198 132.97 164.004 145.241 164.004 158.491C164.004 174.023 169.768 188.21 179.275 199.027V204.425H102.064V199.027Z" fill="#333333"/>
<path fill-rule="evenodd" clip-rule="evenodd" d="M140.669 55.9845H133.262L102.284 100.521C99.575 105.154 97.7833 116.123 112.289 122.935H140.669H169.05C183.555 116.123 181.763 105.154 179.054 100.521L148.077 55.9845H140.669Z" fill="#333333"/>
<rect x="98.4049" y="122.935" width="84.5286" height="11.2208" rx="5.61041" fill="#333333"/>
<rect x="90.9965" y="204.425" width="99.3452" height="14.9595" fill="#333333"/>
<rect x="77.9652" y="219.385" width="125.408" height="15.707" fill="#333333"/>
<rect x="69.6581" y="235.092" width="142.022" height="15.707" fill="#333333"/>
</svg>
