<svg width="281" height="280" viewBox="0 0 281 280" fill="none" xmlns="http://www.w3.org/2000/svg">
<path d="M190.256 90.2523C190.256 107.881 167.871 133.951 140.256 133.951C112.642 133.951 90.2563 107.881 90.2563 90.2523C90.2563 72.6231 112.642 58.3319 140.256 58.3319C167.871 58.3319 190.256 72.6231 190.256 90.2523Z" fill="white"/>
<path d="M143.421 29.4065H136.437V42.4327H123.411V49.4159H136.437V62.4423H143.421V49.4159H156.447V42.4327H143.421V29.4065Z" fill="white"/>
<rect x="97.6647" y="117.634" width="84.5286" height="5.36703" rx="2.68352" fill="white"/>
<path d="M101.323 198.822C110.83 188.005 116.595 173.818 116.595 158.286C116.595 145.036 112.4 132.765 105.266 122.73H174.592C167.458 132.765 163.263 145.036 163.263 158.286C163.263 173.818 169.028 188.005 178.535 198.822V204.22H101.323V198.822Z" fill="white"/>
<rect x="97.6647" y="122.73" width="84.5286" height="11.2208" rx="5.61041" fill="white"/>
<rect x="90.2563" y="204.22" width="99.3452" height="14.9595" fill="white"/>
<rect x="77.225" y="219.18" width="125.408" height="15.707" fill="white"/>
<rect x="68.9179" y="234.886" width="142.022" height="15.707" fill="white"/>
<circle cx="140.218" cy="45.7923" r="7.73348" fill="white"/>
</svg>
