<svg width="281" height="280" viewBox="0 0 281 280" fill="none" xmlns="http://www.w3.org/2000/svg">
<path d="M190.596 89.7523C190.596 107.381 168.211 133.451 140.596 133.451C112.982 133.451 90.5965 107.381 90.5965 89.7523C90.5965 72.1231 112.982 57.8319 140.596 57.8319C168.211 57.8319 190.596 72.1231 190.596 89.7523Z" fill="#333333"/>
<path d="M143.761 28.9065H136.777V41.9327H123.751V48.9159H136.777V61.9423H143.761V48.9159H156.787V41.9327H143.761V28.9065Z" fill="#333333"/>
<rect x="98.0049" y="117.134" width="84.5286" height="5.36703" rx="2.68352" fill="#333333"/>
<path d="M101.664 198.322C111.17 187.505 116.935 173.318 116.935 157.786C116.935 144.536 112.74 132.265 105.606 122.23H174.932C167.798 132.265 163.603 144.536 163.603 157.786C163.603 173.318 169.368 187.505 178.875 198.322V203.72H101.664V198.322Z" fill="#333333"/>
<rect x="98.0049" y="122.23" width="84.5286" height="11.2208" rx="5.61041" fill="#333333"/>
<rect x="90.5965" y="203.72" width="99.3452" height="14.9595" fill="#333333"/>
<rect x="77.5652" y="218.68" width="125.408" height="15.707" fill="#333333"/>
<rect x="69.2581" y="234.386" width="142.022" height="15.707" fill="#333333"/>
<circle cx="140.558" cy="45.2923" r="7.73348" fill="#333333"/>
</svg>
