<svg width="281" height="280" viewBox="0 0 281 280" fill="none" xmlns="http://www.w3.org/2000/svg">
<path d="M127.824 35.5533C121.062 35.5533 122.609 49.3424 124.227 56.2369C122.401 61.4398 116.336 63.7418 112.812 66.4115C109.288 69.0813 112.385 73.0325 106.084 76.1293C99.7839 79.2262 93.0562 84.886 80.989 94.4971C68.9218 104.108 61.6602 107.525 53.9714 108.486C47.8203 109.255 48.1336 113.933 49.0591 116.175L67.4268 136.679H75.6496C76.1835 133.689 79.8143 128.136 88.1439 126.961C96.4734 125.786 115.482 130.165 127.122 124.184C136.434 119.4 142.606 109.732 144.528 105.496L141.487 114.384C133.799 135.527 101.244 146.418 85.9278 149.221C80.4019 160.634 94.7264 183.756 102.579 193.891V197.48H183.76V194.187C195.127 182.82 201.598 158.627 203.413 147.952C203.824 158.504 196.474 179.796 192.747 189.123L218.1 197.597C233.188 174.562 239.949 135.921 220.022 97.0771C204.039 65.9192 171.569 56.1698 157.332 55.1898L156.601 59.2944C145.378 39.8699 132.741 35.3735 127.824 35.5533Z" fill="white"/>
<rect x="91.9963" y="197.078" width="99.3452" height="14.9595" fill="white"/>
<rect x="78.9651" y="212.038" width="125.408" height="15.707" fill="white"/>
<rect x="70.658" y="227.745" width="142.022" height="15.707" fill="white"/>
</svg>
