<svg width="281" height="280" viewBox="0 0 281 280" fill="none" xmlns="http://www.w3.org/2000/svg">
<path d="M127.824 36.0533C121.062 36.0533 122.609 49.8424 124.227 56.7369C122.401 61.9398 116.336 64.2418 112.812 66.9115C109.288 69.5813 112.385 73.5325 106.084 76.6293C99.7839 79.7262 93.0562 85.386 80.989 94.9971C68.9218 104.608 61.6602 108.025 53.9714 108.986C47.8203 109.755 48.1336 114.433 49.0591 116.675L67.4268 137.179H75.6496C76.1835 134.189 79.8143 128.636 88.1439 127.461C96.4734 126.286 115.482 130.665 127.122 124.684C136.434 119.9 142.606 110.232 144.528 105.996L141.487 114.884C133.799 136.027 101.244 146.918 85.9278 149.721C80.4019 161.134 94.7264 184.256 102.579 194.391V197.98H183.76V194.687C195.127 183.32 201.598 159.127 203.413 148.452C203.824 159.004 196.474 180.296 192.747 189.623L218.1 198.097C233.188 175.062 239.949 136.421 220.022 97.5771C204.039 66.4192 171.569 56.6698 157.332 55.6898L156.601 59.7944C145.378 40.3699 132.741 35.8735 127.824 36.0533Z" fill="#333333"/>
<rect x="91.9963" y="197.578" width="99.3452" height="14.9595" fill="#333333"/>
<rect x="78.9651" y="212.538" width="125.408" height="15.707" fill="#333333"/>
<rect x="70.658" y="228.245" width="142.022" height="15.707" fill="#333333"/>
</svg>
