<svg width="281" height="280" viewBox="0 0 281 280" fill="none" xmlns="http://www.w3.org/2000/svg">
<rect x="97.8049" y="108.953" width="84.5286" height="5.36703" rx="2.68352" fill="white"/>
<path d="M101.464 190.14C110.97 179.323 116.735 165.137 116.735 149.604C116.735 136.354 112.54 124.084 105.406 114.049H174.732C167.598 124.084 163.404 136.354 163.404 149.604C163.404 165.137 169.168 179.323 178.675 190.14V195.539H101.464V190.14Z" fill="white"/>
<rect x="97.8049" y="114.049" width="84.5286" height="11.2208" rx="5.61041" fill="white"/>
<rect x="90.3965" y="195.539" width="99.3452" height="14.9595" fill="white"/>
<rect x="77.3652" y="210.498" width="125.408" height="15.707" fill="white"/>
<rect x="69.0581" y="226.205" width="142.022" height="15.707" fill="white"/>
<path fill-rule="evenodd" clip-rule="evenodd" d="M149.56 59.8502C151.915 57.4933 153.372 54.2382 153.372 50.6428C153.372 43.4492 147.54 37.6176 140.347 37.6176C133.153 37.6176 127.321 43.4492 127.321 50.6428C127.321 54.2382 128.778 57.4933 131.134 59.8502L118.474 74.8502L140.347 88.9813L162.219 74.8502L149.56 59.8502Z" fill="white"/>
<path d="M105.091 111.636C102.656 104.941 95.3969 89.5589 85.8355 81.5911C76.2742 73.6233 84.3969 71.7421 89.6534 71.7974C92.4129 72.3771 99.1878 74.342 104.211 77.5639C107.409 79.6149 107.224 76.6451 107 73.0452C106.785 69.5768 106.532 65.5234 109.234 64.8123C114.694 63.3755 119.014 67.1625 126.715 73.9132L126.913 74.0862C130.944 77.6197 131.973 74.3049 133.23 70.2602C134.412 66.4538 135.795 62.001 140.069 62.001C144.344 62.001 145.727 66.4538 146.909 70.2602C148.165 74.3049 149.194 77.6197 153.226 74.0862L153.423 73.9132C161.124 67.1625 165.444 63.3755 170.904 64.8123C173.606 65.5234 173.354 69.5768 173.138 73.0452C172.914 76.6451 172.729 79.6149 175.927 77.5639C180.951 74.342 187.725 72.3771 190.485 71.7974C195.741 71.7421 203.864 73.6233 194.303 81.5911C184.741 89.5589 177.482 104.941 175.047 111.636H105.091Z" fill="white"/>
</svg>
