<svg width="281" height="281" viewBox="0 0 281 281" fill="none" xmlns="http://www.w3.org/2000/svg">
<rect x="97.8049" y="109.718" width="84.5286" height="5.36703" rx="2.68352" fill="#333333"/>
<path d="M101.464 190.905C110.97 180.088 116.735 165.902 116.735 150.369C116.735 137.119 112.54 124.849 105.406 114.814H174.732C167.598 124.849 163.404 137.119 163.404 150.369C163.404 165.902 169.168 180.088 178.675 190.905V196.304H101.464V190.905Z" fill="#333333"/>
<rect x="97.8049" y="114.814" width="84.5286" height="11.2208" rx="5.61041" fill="#333333"/>
<rect x="90.3965" y="196.304" width="99.3452" height="14.9595" fill="#333333"/>
<rect x="77.3652" y="211.263" width="125.408" height="15.707" fill="#333333"/>
<rect x="69.0581" y="226.97" width="142.022" height="15.707" fill="#333333"/>
<path fill-rule="evenodd" clip-rule="evenodd" d="M149.56 60.6152C151.915 58.2583 153.372 55.0032 153.372 51.4078C153.372 44.2142 147.54 38.3826 140.347 38.3826C133.153 38.3826 127.321 44.2142 127.321 51.4078C127.321 55.0032 128.778 58.2583 131.134 60.6152L118.474 75.6152L140.347 89.7464L162.219 75.6152L149.56 60.6152Z" fill="#333333"/>
<path d="M105.091 112.401C102.656 105.706 95.3969 90.3239 85.8355 82.3561C76.2742 74.3883 84.3969 72.5071 89.6534 72.5624C92.4129 73.1421 99.1878 75.1071 104.211 78.3289C107.409 80.3799 107.224 77.4101 107 73.8102C106.785 70.3418 106.532 66.2884 109.234 65.5773C114.694 64.1405 119.014 67.9276 126.715 74.6782L126.913 74.8512C130.944 78.3847 131.973 75.0699 133.23 71.0252C134.412 67.2188 135.795 62.766 140.069 62.766C144.344 62.766 145.727 67.2188 146.909 71.0252C148.165 75.0699 149.194 78.3847 153.226 74.8512L153.423 74.6782C161.124 67.9276 165.444 64.1405 170.904 65.5773C173.606 66.2884 173.354 70.3418 173.138 73.8102C172.914 77.4101 172.729 80.3799 175.927 78.3289C180.951 75.1071 187.725 73.1421 190.485 72.5624C195.741 72.5071 203.864 74.3883 194.303 82.3561C184.741 90.3239 177.482 105.706 175.047 112.401H105.091Z" fill="#333333"/>
</svg>
