<svg width="281" height="281" viewBox="0 0 281 281" fill="none" xmlns="http://www.w3.org/2000/svg">
<rect x="85.1729" y="92.5955" width="110.393" height="11.2208" rx="5.61041" fill="white"/>
<rect x="90.6965" y="174.085" width="99.3452" height="14.9595" fill="white"/>
<rect x="77.6652" y="189.045" width="125.408" height="15.707" fill="white"/>
<rect x="69.3581" y="204.752" width="142.022" height="15.707" fill="white"/>
<path d="M100.916 103.816C102.181 104.347 104.71 105.808 104.71 107.402C104.71 108.995 98.6399 154.012 95.6051 176.321C95.0993 177.782 93.6324 180.823 91.8115 181.301C89.9906 181.779 123.425 181.5 140.369 181.301V103.816H100.916Z" fill="white"/>
<path d="M140.369 103.816H179.822C178.558 104.347 176.029 105.808 176.029 107.402C176.029 108.995 182.098 154.012 185.133 176.321C185.639 177.782 187.106 180.823 188.927 181.301C190.748 181.779 157.314 181.5 140.369 181.301V103.816Z" fill="white"/>
<path d="M194.476 59.0154L191.947 94.0901L177.737 92.9591H89.565L84.5527 59.2397H110.07L111.437 84.833H127.993V59.2397H152.295V84.833H177.737L177.501 59.2886L194.476 59.0154Z" fill="#F1F1F1"/>
<path d="M189.4 79.2449L190.611 59.2874H194.296L192.979 79.2449H193.006L192.63 84.5459L192.454 87.2176H192.44L191.947 94.1795H88.7555L84.3935 59.3722H103.664L105.23 79.2449H116.551L114.865 59.3722H141.362V79.2449H157.621V59.3722H181.348V79.2449H189.4Z" fill="white"/>
</svg>
